<svg xmlns="http://www.w3.org/2000/svg" viewBox="0 0 128 128">
<style type="text/css">
	path {
        fill: black;
    }
    @media (prefers-color-scheme: dark) {
      path {
        fill: white;
      }
    }
</style>
<path d="M25.2,111.4c-9,0-15.6-2.8-19.7-8.3c-4.2-5.5-5.4-13.7-3.7-24.4l5.1-32.1c1.6-10.3,4.9-17.9,9.7-22.7
		c4.9-4.8,11.7-7.2,20.4-7.2c6.2,0,11.2,1.4,15.1,4.1c3.9,2.7,6.5,6.6,7.9,11.5c1.4,4.9,1.3,10.7-0.4,17.2c-0.3,1.1-0.9,1.7-1.8,1.7
		H44.1c-1.3,0-1.8-0.6-1.6-1.7c1.1-5.4,1.2-9.6,0.1-12.6c-1-3-3.5-4.5-7.2-4.5c-3.4,0-6,1.2-7.7,3.5c-1.8,2.3-3.1,6.1-3.9,11.3
		l-5.1,32.1c-0.9,5.6-0.6,9.7,0.6,12.4c1.3,2.7,3.8,4,7.5,4c3.8,0,6.5-1.6,8.2-4.7c1.7-3.1,2.7-7.2,3.1-12.4
		c0.1-1.2,0.7-1.8,1.7-1.8h13.8c0.5,0,0.9,0.1,1.2,0.4c0.3,0.3,0.4,0.8,0.4,1.4c-0.6,10.1-3.3,18.1-8.2,24
		C42,108.5,34.7,111.4,25.2,111.4z"/>
<path d="M61.8,110.6c-1.2,0-1.8-0.6-1.6-1.7l14.2-89.6c0.3-1.1,0.9-1.7,1.8-1.7h13.6c1.2,0,1.8,0.6,1.6,1.7l-3.1,20.2
		c-0.6,3.3-1.2,6.7-1.8,10.2c-0.6,3.5-1.3,6.9-2.2,10.4h0.3c1.8-3.5,3.6-7,5.5-10.4c1.9-3.4,3.8-6.8,5.7-10.1l12.4-20.3
		c0.7-1.1,1.5-1.7,2.4-1.7h15.5c0.5,0,0.8,0.2,1.1,0.5c0.2,0.3,0.2,0.7-0.2,1.2l-24,39l11.8,50.6c0.2,1.1-0.3,1.7-1.6,1.7H98.5
		c-0.9,0-1.5-0.6-1.7-1.7l-7.7-37.1l-7.7,11.1l-4.3,26c-0.1,1.1-0.7,1.7-1.7,1.7H61.8z"/>
</svg>
